#N struct 1018-point float x0 float y0 float xs float ys float fg float in float gridx float gridy;
#N canvas 473 56 1152 863 12;
#X obj 103 11 vsl 19 162 0 1 0 0 empty empty empty 0 -9 0 12 #fcfcfc #000000 #000000 0 1;
#X obj 129 11 vsl 19 162 0 1 0 0 empty empty empty 0 -9 0 12 #fcfcfc #000000 #000000 0 1;
#X obj 108 252 pack;
#X obj 144 190 t b f;
#X obj 146 373 unpack 1 1 1 1 1 1 1 1 1 1, f 33;
#X obj 349 422 vsl 19 162 0 1 0 0 empty empty empty 0 -9 0 12 #fcfcfc #000000 #000000 0 1;
#X obj 375 422 vsl 19 162 0 1 0 0 empty empty empty 0 -9 0 12 #fcfcfc #000000 #000000 0 1;
#X obj 297 422 vsl 19 162 0 1 0 0 empty empty empty 0 -9 0 12 #fcfcfc #000000 #000000 0 1;
#X obj 323 422 vsl 19 162 0 1 0 0 empty empty empty 0 -9 0 12 #fcfcfc #000000 #000000 0 1;
#X obj 246 422 vsl 19 162 0 1 0 0 empty empty empty 0 -9 0 12 #fcfcfc #000000 #000000 0 1;
#X obj 272 422 vsl 19 162 0 1 0 0 empty empty empty 0 -9 0 12 #fcfcfc #000000 #000000 0 1;
#X obj 194 422 vsl 19 162 0 1 0 0 empty empty empty 0 -9 0 12 #fcfcfc #000000 #000000 0 1;
#X obj 220 422 vsl 19 162 0 1 0 0 empty empty empty 0 -9 0 12 #fcfcfc #000000 #000000 0 1;
#X obj 142 422 vsl 19 162 0 1 0 0 empty empty empty 0 -9 0 12 #fcfcfc #000000 #000000 0 1;
#X obj 168 422 vsl 19 162 0 1 0 0 empty empty empty 0 -9 0 12 #fcfcfc #000000 #000000 0 1;
#X obj 54 313 rtneural 2 10;
#X obj 198 203 loadbang;
#X obj 25 225 tgl 19 0 empty empty empty 0 -10 0 12 #fcfcfc #000000 #000000 0 1;
#X msg 25 249 bypass \$1;
#X msg 419 177 set \$1 \$2;
#X msg 454 206 0.669291 0.480315;
#X obj 253 55 slider2d 127 127 0 1 0 1 1 255 255 255 0 0 0 0 0 0 0.669291 0.480315 empty empty;
#X msg 264 9 xrange 0 1;
#X msg 346 10 yrange 0 1;
#X obj 139 604 * 127;
#X obj 166 634 * 127;
#X obj 191 604 * 127;
#X obj 218 634 * 127;
#X obj 243 604 * 127;
#X obj 270 634 * 127;
#X obj 295 604 * 127;
#X obj 322 634 * 127;
#X obj 347 604 * 127;
#X obj 374 634 * 127;
#X obj 139 660 t f b;
#X obj 166 688 t f b;
#X obj 197 662 t f b;
#X obj 224 690 t f b;
#X obj 255 664 t f b;
#X obj 280 689 t f b;
#X obj 314 662 t f b;
#X obj 340 688 t f b;
#X obj 371 663 t f b;
#X obj 398 685 t f b;
#X msg 141 724 20;
#X msg 177 724 21;
#X msg 213 724 22;
#X msg 249 724 23;
#X msg 285 724 24;
#X msg 321 724 25;
#X msg 357 724 26;
#X msg 393 724 27;
#X msg 429 724 28;
#X msg 465 724 29;
#X obj 103 786 ctlout 0 1, f 14;
#X obj 455 413 foo;
#X obj 458 368 bng 25 250 50 0 empty empty empty 17 7 0 10 #e4e4e4 #4d4d4d #373737;
#X floatatom 474 469 5 0 0 0 - - - 12;
#X msg 181 249 load_model RTNeural_python/MLP_control/trainings/dumb_data/mlp_training_RTNeural.json;
#X connect 0 0 2 0;
#X connect 1 0 3 0;
#X connect 2 0 15 0;
#X connect 3 0 2 0;
#X connect 3 1 2 1;
#X connect 4 0 13 0;
#X connect 4 1 14 0;
#X connect 4 2 11 0;
#X connect 4 3 12 0;
#X connect 4 4 9 0;
#X connect 4 5 10 0;
#X connect 4 6 7 0;
#X connect 4 7 8 0;
#X connect 4 8 5 0;
#X connect 4 9 6 0;
#X connect 5 0 32 0;
#X connect 6 0 33 0;
#X connect 7 0 30 0;
#X connect 8 0 31 0;
#X connect 9 0 28 0;
#X connect 10 0 29 0;
#X connect 11 0 26 0;
#X connect 12 0 27 0;
#X connect 13 0 24 0;
#X connect 14 0 25 0;
#X connect 15 0 4 0;
#X connect 16 0 58 0;
#X connect 17 0 18 0;
#X connect 18 0 15 0;
#X connect 19 0 20 0;
#X connect 21 0 19 0;
#X connect 21 0 15 0;
#X connect 22 0 21 0;
#X connect 23 0 21 0;
#X connect 24 0 34 0;
#X connect 25 0 35 0;
#X connect 26 0 36 0;
#X connect 27 0 37 0;
#X connect 28 0 38 0;
#X connect 29 0 39 0;
#X connect 30 0 40 0;
#X connect 31 0 41 0;
#X connect 32 0 42 0;
#X connect 33 0 43 0;
#X connect 34 0 54 0;
#X connect 34 1 44 0;
#X connect 35 0 54 0;
#X connect 35 1 45 0;
#X connect 36 0 54 0;
#X connect 36 1 46 0;
#X connect 37 0 54 0;
#X connect 37 1 47 0;
#X connect 38 0 54 0;
#X connect 38 1 48 0;
#X connect 39 0 54 0;
#X connect 39 1 49 0;
#X connect 40 0 54 0;
#X connect 40 1 50 0;
#X connect 41 0 54 0;
#X connect 41 1 51 0;
#X connect 42 0 54 0;
#X connect 42 1 52 0;
#X connect 43 0 54 0;
#X connect 43 1 53 0;
#X connect 44 0 54 1;
#X connect 55 0 57 0;
#X connect 56 0 55 0;
#X connect 58 0 15 0;
