#N canvas 346 211 450 300 12;
#X obj 63 200 rtneural 2 10;
#X msg 42 44 set_epochs 5000;
#X msg 52 69 set_in_vals 0 0 0 1 1 1 1 0;
#X msg 62 94 set_layers_data 3 relu 5 relu 7 relu 9 relu 10 sigmoid;
#X msg 172 144 set_out_vals 0.587515 0.848546 0.232725 0.0768511 0.489843 0.860644 0.358482 0.664317 0.271066 0.912031 0.316659 0.0485348 0.730561 0.349654 0.862646 0.0238627 0.484753 0.388567 0.813416 0.255053 0.451824 0.413756 0.502282 0.170245 0.00849209 0.590901 0.489223 0.747738 0.766349 0.27479 0.187491 0.190191 0.85232 0.332909 0.608713 0.331429 0.967776 0.988106 0.820469 0.471508;
#X msg 72 119 set_learn_rate 0.001;
#X msg 169 15 write_json output/rtneural_json.json;
#X connect 1 0 0 0;
#X connect 2 0 0 0;
#X connect 3 0 0 0;
#X connect 4 0 0 0;
#X connect 5 0 0 0;
#X connect 6 0 0 0;
