#N canvas 108 266 894 703 12;
#X msg 181 249 load_model /Users/spluta1/Dev/RTNeural_Plugin/RTNeural_Plugin/RTNeural_SC/RTNeural/RTNeural_python/MLP_control/mlp_RTNeural.json;
#X obj 103 9 vsl 19 162 0 1 0 0 empty empty empty 0 -9 0 12 #fcfcfc #000000 #000000 0 1;
#X obj 129 9 vsl 19 162 0 1 0 0 empty empty empty 0 -9 0 12 #fcfcfc #000000 #000000 0 1;
#X obj 108 252 pack;
#X obj 144 190 t b f;
#X obj 146 373 unpack 1 1 1 1 1 1 1 1 1 1, f 33;
#X obj 349 420 vsl 19 162 0 1 0 0 empty empty empty 0 -9 0 12 #fcfcfc #000000 #000000 0 1;
#X obj 375 420 vsl 19 162 0 1 0 0 empty empty empty 0 -9 0 12 #fcfcfc #000000 #000000 0 1;
#X obj 297 420 vsl 19 162 0 1 0 0 empty empty empty 0 -9 0 12 #fcfcfc #000000 #000000 0 1;
#X obj 323 420 vsl 19 162 0 1 0 0 empty empty empty 0 -9 0 12 #fcfcfc #000000 #000000 0 1;
#X obj 246 420 vsl 19 162 0 1 0 0 empty empty empty 0 -9 0 12 #fcfcfc #000000 #000000 0 1;
#X obj 272 420 vsl 19 162 0 1 0 0 empty empty empty 0 -9 0 12 #fcfcfc #000000 #000000 0 1;
#X obj 194 420 vsl 19 162 0 1 0 0 empty empty empty 0 -9 0 12 #fcfcfc #000000 #000000 0 1;
#X obj 220 420 vsl 19 162 0 1 0 0 empty empty empty 0 -9 0 12 #fcfcfc #000000 #000000 0 1;
#X obj 142 420 vsl 19 162 0 1 0 0 empty empty empty 0 -9 0 12 #fcfcfc #000000 #000000 0 1;
#X obj 168 420 vsl 19 162 0 1 0 0 empty empty empty 0 -9 0 12 #fcfcfc #000000 #000000 0 1;
#X obj 54 313 rtneural 2 10;
#X obj 198 203 loadbang;
#X obj 25 225 tgl 19 0 empty empty empty 0 -10 0 12 #fcfcfc #000000 #000000 0 1;
#X msg 25 249 bypass \$1;
#X connect 0 0 16 0;
#X connect 1 0 3 0;
#X connect 2 0 4 0;
#X connect 3 0 16 0;
#X connect 4 0 3 0;
#X connect 4 1 3 1;
#X connect 5 0 14 0;
#X connect 5 1 15 0;
#X connect 5 2 12 0;
#X connect 5 3 13 0;
#X connect 5 4 10 0;
#X connect 5 5 11 0;
#X connect 5 6 8 0;
#X connect 5 7 9 0;
#X connect 5 8 6 0;
#X connect 5 9 7 0;
#X connect 16 0 5 0;
#X connect 17 0 0 0;
#X connect 18 0 19 0;
#X connect 19 0 16 0;
