#N canvas 434 277 1045 684 12;
#X obj 103 11 vsl 19 162 0 1 0 0 empty empty empty 0 -9 0 12 #fcfcfc #000000 #000000 0 1;
#X obj 129 11 vsl 19 162 0 1 0 0 empty empty empty 0 -9 0 12 #fcfcfc #000000 #000000 0 1;
#X obj 108 252 pack;
#X obj 144 190 t b f;
#X obj 54 313 rtneural 2 10;
#X obj 198 203 loadbang;
#X obj 25 225 tgl 19 0 empty empty empty 0 -10 0 12 #fcfcfc #000000 #000000 0 1;
#X msg 25 249 bypass \$1;
#X msg 419 177 set \$1 \$2;
#X msg 454 206 0.511811 0.559055;
#X obj 253 55 slider2d 127 127 0 1 0 1 1 255 255 255 0 0 0 0 0 0 0.511811 0.559055 empty empty;
#X msg 264 9 xrange 0 1;
#X msg 346 10 yrange 0 1;
#X obj 37 37;
#N canvas 0 0 450 300 (subpatch) 0;
#X array array10 10 float 2;
#X coords 0 1 10 0 403 199 1 0 0;
#X restore 38 403 graph;
#X obj 53 351 array set array10;
#X msg 463 442 1;
#X obj 463 412 loadbang;
#X obj 462 505 array get array10;
#X msg 222 236 load_model /Users/spluta1/Dev/RTNeural_Plugin/RTNeural_Plugin/RTNeural_SC/RTNeural/RTNeural_python/MLP_control/trainings/dumb_data/mlp_training_RTNeural.json;
#X obj 462 535 s vals;
#X obj 463 471 metro 20;
#X msg 684 267 write_json /Users/spluta1/Desktop/temp.json;
#X connect 0 0 2 0;
#X connect 1 0 3 0;
#X connect 2 0 4 0;
#X connect 3 0 2 0;
#X connect 3 1 2 1;
#X connect 4 0 15 0;
#X connect 5 0 19 0;
#X connect 6 0 7 0;
#X connect 7 0 4 0;
#X connect 8 0 9 0;
#X connect 10 0 8 0;
#X connect 10 0 4 0;
#X connect 11 0 10 0;
#X connect 12 0 10 0;
#X connect 16 0 21 0;
#X connect 17 0 16 0;
#X connect 18 0 20 0;
#X connect 19 0 4 0;
#X connect 21 0 18 0;
#X connect 22 0 4 0;
