#N canvas 814 272 954 667 12;
#X obj 505 197 list length;
#X obj 516 247 random;
#X obj 449 296 list split;
#X obj 482 321 list split;
#X obj 505 222 t b f;
#X obj 680 207 t b b l;
#X obj 654 232 until;
#X msg 703 232 0;
#X obj 654 257 f;
#X obj 691 257 + 1;
#X obj 685 307 list store;
#X obj 685 357 f;
#X obj 619 457 until;
#X msg 668 457 0;
#X obj 619 482 f;
#X obj 656 482 + 1;
#X obj 702 557 list store;
#X obj 667 540 /;
#X obj 487 172 t l l l;
#X listbox 504 615 60 0 0 0 - - - 0;
#X msg 702 532 get \$1;
#X msg 654 282 get \$1;
#X obj 642 565 pack;
#X msg 642 590 set \$1 \$2;
#X msg 569 557 get 0 -1;
#X obj 619 507 t f f f;
#X obj 619 432 f;
#X obj 599 382 t b b b l;
#X obj 504 590 spigot;
#X obj 543 557 tgl 20 0 empty empty empty 0 -10 0 12 #fcfcfc #000000 #000000 0 1;
#X obj 546 532 t b b b;
#X obj 685 332 max;
#X text 743 207 find max value within list, f 14;
#X obj 487 147 list;
#X obj 555 222 -;
#X obj 504 639 outlet norm;
#X obj 680 87 inlet list;
#X obj 487 87 inlet restart_with_n;
#X obj 240 407 list store;
#X listbox 240 452 20 0 0 2 queue - - 16;
#X obj 177 222 softmax 1;
#X obj 810 87 inlet which_top;
#X obj 550 147 s \$0-n;
#X obj 637 407 r \$0-n;
#X obj 237 197 r \$0-n;
#X obj 487 122 t b f;
#X obj 810 122 s \$0-which-top;
#X obj 265 232 r \$0-which-top;
#X obj 580 257 r \$0-n;
#X text 380 172 restart queue from random n values within list, f 14;
#X obj 197 639 outlet one;
#X floatatom 516 272 5 0 0 0 - - - 0;
#X text 11 222 push next value chosen by [softmax] to back of queue \, pop front, f 22;
#X msg 211 382 delete 0;
#X obj 580 282 - 1;
#X obj 482 396 f;
#X obj 482 421 t f b f;
#X obj 482 346 t b l;
#X msg 500 371 \$1;
#X msg 257 357 append \$1;
#X obj 177 87 inlet next_dist;
#X obj 216 272 == 0;
#X floatatom 197 347 5 0 0 0 - - - 0;
#X obj 197 322 t f b b f;
#X obj 197 247 spigot 0;
#X obj 177 297 spigot 1;
#X listbox 57 442 20 0 0 2 top\ n\ indices - - 0;
#X listbox 57 486 60 0 0 2 top\ n\ weights - - 0;
#X text 720 422 normalize values to max value within greater list (in accordance with [rtneural]'s training), f 25;
#X text 14 10 this subpatch introduces [softmax] \, a data rate object for analyzing softmaxes. its first inlet takes in a softmax as a list \, from which it outputs (from left to right) the top weighted index \, a weighted random index \, the top n weighted indices \, and the top n weights. a bang passed to the first inlet does and outputs the same calculations (with a new random index). the second inlet takes an integer to set the value n \, as does the optional creation argument., f 131;
#X connect 0 0 4 0;
#X connect 1 0 51 0;
#X connect 2 1 3 0;
#X connect 3 0 57 0;
#X connect 3 1 58 0;
#X connect 4 0 1 0;
#X connect 4 1 34 0;
#X connect 5 0 6 0;
#X connect 5 1 7 0;
#X connect 5 2 10 1;
#X connect 6 0 8 0;
#X connect 7 0 8 1;
#X connect 7 0 31 1;
#X connect 8 0 9 0;
#X connect 8 0 21 0;
#X connect 9 0 8 1;
#X connect 10 0 31 0;
#X connect 10 1 6 1;
#X connect 11 0 17 1;
#X connect 11 0 31 1;
#X connect 12 0 14 0;
#X connect 13 0 14 1;
#X connect 14 0 25 0;
#X connect 15 0 14 1;
#X connect 16 0 17 0;
#X connect 16 0 28 0;
#X connect 16 1 12 1;
#X connect 17 0 22 1;
#X connect 18 0 2 0;
#X connect 18 1 0 0;
#X connect 18 2 5 0;
#X connect 19 0 35 0;
#X connect 20 0 16 0;
#X connect 21 0 10 0;
#X connect 22 0 23 0;
#X connect 23 0 16 0;
#X connect 24 0 16 0;
#X connect 25 0 15 0;
#X connect 25 1 22 0;
#X connect 25 2 20 0;
#X connect 26 0 12 0;
#X connect 27 0 30 0;
#X connect 27 1 26 0;
#X connect 27 2 13 0;
#X connect 27 3 16 1;
#X connect 28 0 19 0;
#X connect 29 0 28 1;
#X connect 30 0 29 0;
#X connect 30 1 24 0;
#X connect 30 2 29 0;
#X connect 31 0 11 0;
#X connect 33 0 18 0;
#X connect 34 0 1 1;
#X connect 36 0 33 1;
#X connect 37 0 45 0;
#X connect 38 0 39 0;
#X connect 39 0 27 0;
#X connect 40 0 65 0;
#X connect 40 1 64 0;
#X connect 40 2 66 0;
#X connect 40 3 67 0;
#X connect 41 0 46 0;
#X connect 43 0 26 1;
#X connect 44 0 40 1;
#X connect 45 0 33 0;
#X connect 45 1 42 0;
#X connect 47 0 61 0;
#X connect 47 0 64 1;
#X connect 48 0 34 1;
#X connect 48 0 54 0;
#X connect 51 0 2 1;
#X connect 53 0 38 0;
#X connect 54 0 3 1;
#X connect 55 0 56 0;
#X connect 56 0 50 0;
#X connect 56 1 38 0;
#X connect 56 2 59 0;
#X connect 57 0 55 0;
#X connect 57 1 38 1;
#X connect 58 0 55 1;
#X connect 59 0 38 0;
#X connect 60 0 40 0;
#X connect 61 0 65 1;
#X connect 62 0 50 0;
#X connect 63 0 62 0;
#X connect 63 1 38 0;
#X connect 63 2 53 0;
#X connect 63 3 59 0;
#X connect 64 0 63 0;
#X connect 65 0 63 0;
