#N canvas 113 52 1183 755 12;
#X obj 211 252 tgl 19 0 empty empty empty 0 -10 0 12 #fcfcfc #000000 #000000 0 1;
#X msg 211 276 bypass \$1;
#X msg 430 277 load_model output/mlp_training_RTNeural.json;
#X obj 300 275 snake~ 3, f 10;
#X obj 54 5224 noise~;
#X obj 64 5234 noise~;
#X obj 74 5244 noise~;
#X obj 470 143 noise~;
#N canvas 0 0 450 300 (subpatch) 0;
#X array trig_array 10 float 2;
#X coords 0 1 10 0 403 199 1 0 0;
#X restore 83 451 graph;
#X obj 294 144 osc~ 0.1;
#X obj 293 186 *~ 0.5;
#X obj 293 215 +~ 0.5;
#X obj 359 187 *~ 0.5;
#X obj 359 216 +~ 0.5;
#N canvas 121 146 660 377 set_array 0;
#X obj 121 76 snake~ out 10, f 31;
#X obj 381 77 metro 2;
#X obj 392 35 loadbang;
#X obj 364 35 bng 19 250 50 0 empty empty empty 0 -10 0 12 #fcfcfc #000000 #000000;
#X obj 121 116 snapshot~;
#X obj 142 142 snapshot~;
#X obj 167 172 snapshot~;
#X obj 191 200 snapshot~;
#X obj 223 228 snapshot~;
#X obj 220 117 snapshot~;
#X obj 241 143 snapshot~;
#X obj 266 173 snapshot~;
#X obj 290 201 snapshot~;
#X obj 322 229 snapshot~;
#X obj 104 274 pack 1 1 1 1 1 1 1 1 1 1;
#X listbox 104 298 84 0 0 0 - - - 0;
#X obj 121 39 inlet~;
#X obj 96 333 array set trig_array;
#X connect 0 0 4 0;
#X connect 0 1 5 0;
#X connect 0 2 6 0;
#X connect 0 3 7 0;
#X connect 0 4 8 0;
#X connect 0 5 9 0;
#X connect 0 6 10 0;
#X connect 0 7 11 0;
#X connect 0 8 12 0;
#X connect 0 9 13 0;
#X connect 1 0 4 0;
#X connect 1 0 5 0;
#X connect 1 0 6 0;
#X connect 1 0 7 0;
#X connect 1 0 8 0;
#X connect 1 0 9 0;
#X connect 1 0 10 0;
#X connect 1 0 11 0;
#X connect 1 0 12 0;
#X connect 1 0 13 0;
#X connect 2 0 1 0;
#X connect 3 0 1 0;
#X connect 4 0 14 0;
#X connect 5 0 14 1;
#X connect 6 0 14 2;
#X connect 7 0 14 3;
#X connect 8 0 14 4;
#X connect 9 0 14 5;
#X connect 10 0 14 6;
#X connect 11 0 14 7;
#X connect 12 0 14 8;
#X connect 13 0 14 9;
#X connect 14 0 15 0;
#X connect 15 0 17 0;
#X connect 16 0 0 0;
#X restore 239 377 pd set_array;
#X obj 360 145 osc~ 0.2;
#X obj 471 168 -~ 0.9999;
#X text 548 161 triggers the function when the output of this value is greater than 0, f 38;
#X text 139 20 trigger_mode set to 1 allows the audio rate function to be triggered with an audio trigger. this allows inference to happen at any sample \, but not every sample, f 73;
#X obj 240 333 rtneural~ 2 10 -1 0;
#X obj 48 253 tgl 19 0 empty empty empty 0 -10 0 12 #fcfcfc #000000 #000000 0 1;
#X msg 48 277 trigger_mode \$1;
#X text 43 167 trigger_mode can be set as the 4th argument in the object or with a trigger_mode message, f 20;
#X text 213 102 combine the input channels to the neural network with a final channel that is the trigger to run inference;
#X connect 0 0 1 0;
#X connect 1 0 19 0;
#X connect 2 0 19 0;
#X connect 3 0 19 0;
#X connect 7 0 16 0;
#X connect 9 0 10 0;
#X connect 10 0 11 0;
#X connect 11 0 3 0;
#X connect 12 0 13 0;
#X connect 13 0 3 1;
#X connect 15 0 12 0;
#X connect 16 0 3 2;
#X connect 19 0 14 0;
#X connect 20 0 21 0;
#X connect 21 0 19 0;
