#N canvas 127 159 957 653 12;
#X msg 76 196 bypass 0;
#X obj 240 472 dac~;
#X msg 152 196 bypass 1;
#X obj 239 414 *~ 0.1;
#X obj 40 347 bng 19 250 50 0 empty empty empty 0 -10 0 12 #fcfcfc #000000 #000000;
#X msg 43 375 0;
#X obj 77 346 bng 19 250 50 0 empty empty empty 0 -10 0 12 #fcfcfc #000000 #000000;
#X msg 80 374 0.1;
#X obj 60 111 tgl 19 0 empty empty empty 0 -10 0 12 #fcfcfc #000000 #000000 0 1;
#X obj 60 135 select 1 0;
#X obj 38 285 tgl 19 0 empty empty empty 0 -10 0 12 #fcfcfc #000000 #000000 0 1;
#X obj 39 310 select 0 1;
#X text 65 285 on/mute;
#X text 89 108 engage/bypass;
#X obj 9 35 loadbang;
#X obj 236 164 osc~ 200;
#X floatatom 236 133 5 0 0 0 - - - 0;
#X obj 364 28 vsl 19 162 0 1 0 0 empty empty empty 0 -9 0 12 #fcfcfc #000000 #000000 0 1;
#X floatatom 364 199 5 0 0 0 - - - 0;
#X obj 364 222 sig~;
#X text 236 6 adjust the gain parameter of the neural net;
#X obj 246 278 snake~ in 2;
#X obj 236 341 rtneural~ 2 1 44100;
#X msg 27 80 1;
#N canvas 0 22 450 278 (subpatch) 0;
#X array \$0-lstm_dist 4410 float 0;
#X coords 0 1 4409 -1 200 100 1 0 0;
#X restore 549 394 graph;
#X obj 385 413 metro 100;
#X obj 385 385 loadbang;
#X obj 366 447 tabwrite~ \$0-lstm_dist;
#X msg 460 286 load_model models/DOD_AmericanMetal_GainKnob_RTNeural.json;
#X connect 0 0 22 0;
#X connect 2 0 22 0;
#X connect 3 0 1 0;
#X connect 3 0 1 1;
#X connect 4 0 5 0;
#X connect 5 0 3 1;
#X connect 6 0 7 0;
#X connect 7 0 3 1;
#X connect 8 0 9 0;
#X connect 9 0 0 0;
#X connect 9 1 2 0;
#X connect 10 0 11 0;
#X connect 11 0 4 0;
#X connect 11 1 6 0;
#X connect 14 0 23 0;
#X connect 15 0 21 0;
#X connect 16 0 15 0;
#X connect 17 0 18 0;
#X connect 18 0 19 0;
#X connect 19 0 21 1;
#X connect 21 0 22 0;
#X connect 22 0 3 0;
#X connect 22 0 27 0;
#X connect 23 0 8 0;
#X connect 23 0 10 0;
#X connect 25 0 27 0;
#X connect 26 0 25 0;
#X connect 28 0 22 0;
