#N canvas 638 439 1031 387 12;
#X obj 58 265 rtneural 2 10;
#X msg 32 47 set_epochs 5000;
#X msg 52 97 set_layers_data 3 relu 5 relu 7 relu 9 relu 10 sigmoid;
#X msg 62 122 set_learn_rate 0.001;
#X msg 480 69 add_output 0.587515 0.848546 0.232725 0.0768511 0.489843 0.860644 0.358482 0.664317 0.271066 0.912031;
#X msg 482 121 add_input 0.2 0.99;
#X msg 159 18 write_json output/rtneural_json.json;
#X msg 450 31 clear_points;
#X msg 469 199 post_points;
#X msg 471 227 remove_point 0;
#X connect 1 0 0 0;
#X connect 2 0 0 0;
#X connect 3 0 0 0;
#X connect 4 0 0 0;
#X connect 5 0 0 0;
#X connect 6 0 0 0;
#X connect 7 0 0 0;
#X connect 8 0 0 0;
#X connect 9 0 0 0;
