#N canvas 906 177 982 771 12;
#X msg 76 196 bypass 0;
#X obj 240 472 dac~;
#X msg 152 196 bypass 1;
#X obj 239 414 *~ 0.1;
#X obj 40 347 bng 19 250 50 0 empty empty empty 0 -10 0 12 #fcfcfc #000000 #000000;
#X msg 43 375 0;
#X obj 77 346 bng 19 250 50 0 empty empty empty 0 -10 0 12 #fcfcfc #000000 #000000;
#X msg 80 374 0.1;
#X obj 60 111 tgl 19 0 empty empty empty 0 -10 0 12 #fcfcfc #000000 #000000 0 1;
#X obj 60 135 select 1 0;
#X obj 38 285 tgl 19 0 empty empty empty 0 -10 0 12 #fcfcfc #000000 #000000 0 1;
#X obj 39 310 select 0 1;
#X text 65 285 on/mute;
#X text 89 108 engage/bypass;
#X obj -5 205 loadbang;
#X obj 236 341 rtneural~ 3 1, f 18;
#X obj 236 164 osc~ 200;
#X floatatom 236 133 5 0 0 0 - - - 0;
#X obj 360 28 vsl 19 162 0 1 0 0 empty empty empty 0 -9 0 12 #fcfcfc #000000 #000000 0 1;
#X floatatom 364 199 5 0 0 0 - - - 0;
#X obj 246 278 snake~ in 3;
#X obj 364 222 sig~;
#X obj 504 132 samplerate~;
#X obj 472 71 bng 19 250 50 0 empty empty empty 17 7 0 10 #dfdfdf #000000 #000000;
#X obj 472 44 receive pd-dsp-started;
#X obj 472 99 t b b;
#X obj 474 159 /;
#X msg 465 132 1;
#X floatatom 477 189 15 0 0 0 - - - 0;
#X obj 474 223 sig~;
#X text 236 6 adjust the gain parameter of the neural net;
#X text 536 234 loads a 3 input LSTM model from Jatin Chowdury's Chow Centaur, f 62;
#X msg 0 246 1;
#X msg 523 261 load_model models/centaur_large.json;
#X connect 0 0 15 0;
#X connect 2 0 15 0;
#X connect 3 0 1 0;
#X connect 3 0 1 1;
#X connect 4 0 5 0;
#X connect 5 0 3 1;
#X connect 6 0 7 0;
#X connect 7 0 3 1;
#X connect 8 0 9 0;
#X connect 9 0 0 0;
#X connect 9 1 2 0;
#X connect 10 0 11 0;
#X connect 11 0 4 0;
#X connect 11 1 6 0;
#X connect 14 0 32 0;
#X connect 15 0 3 0;
#X connect 16 0 20 0;
#X connect 17 0 16 0;
#X connect 18 0 19 0;
#X connect 19 0 21 0;
#X connect 20 0 15 0;
#X connect 21 0 20 1;
#X connect 22 0 26 1;
#X connect 23 0 25 0;
#X connect 24 0 23 0;
#X connect 25 0 27 0;
#X connect 25 1 22 0;
#X connect 26 0 28 0;
#X connect 27 0 26 0;
#X connect 28 0 29 0;
#X connect 29 0 20 2;
#X connect 32 0 10 0;
#X connect 33 0 15 0;
