#N canvas 464 241 957 629 12;
#X msg 76 196 bypass 0;
#X obj 216 490 dac~;
#X msg 152 196 bypass 1;
#X obj 239 414 *~ 0.1;
#X obj 40 347 bng 19 250 50 0 empty empty empty 0 -10 0 12 #fcfcfc #000000 #000000;
#X msg 43 375 0;
#X obj 77 346 bng 19 250 50 0 empty empty empty 0 -10 0 12 #fcfcfc #000000 #000000;
#X msg 80 374 0.1;
#X obj 60 111 tgl 19 0 empty empty empty 0 -10 0 12 #fcfcfc #000000 #000000 0 1;
#X obj 60 135 select 1 0;
#X obj 38 285 tgl 19 0 empty empty empty 0 -10 0 12 #fcfcfc #000000 #000000 0 1;
#X obj 39 310 select 0 1;
#X text 65 285 on/mute;
#X text 89 108 engage/bypass;
#X obj 9 35 loadbang;
#X floatatom 236 133 5 0 0 0 - - - 0;
#X obj 363 20 vsl 19 162 0 1 0 0 empty empty empty 0 -9 0 12 #fcfcfc #000000 #000000 0 1;
#X floatatom 364 199 5 0 0 0 - - - 0;
#X obj 364 222 sig~;
#X obj 246 278 snake~ in 2;
#X msg 27 80 1;
#X obj 236 341 rtneural~ 2 1;
#X obj 236 164 phasor~ 200;
#N canvas 0 22 450 278 (subpatch) 0;
#X array \$0-neural_out 4410 float 0;
#X coords 0 1 4409 -1 200 100 1 0 0;
#X restore 549 393 graph;
#X obj 385 412 metro 100;
#X obj 385 384 loadbang;
#X obj 366 446 tabwrite~ \$0-neural_out;
#X text 405 70 the mlp is trained on a variable wavetable oscillator move the fader to change the shape of the oscillator all interpolation is being done by the neural network;
#X text 225 97 frequency of the phasor;
#X msg 460 243 load_model ../../RTNeural_python/4Osc_MLP_torch/4Osc_torch_RTNeural.json;
#X obj 42 488 hsl 162 19 0 1 0 0 empty empty empty -2 -10 0 12 #fcfcfc #000000 #000000 0 1;
#X obj 103 431 loadbang;
#X msg 103 460 1;
#X obj 221 455 *~ 1;
#X connect 0 0 21 0;
#X connect 2 0 21 0;
#X connect 3 0 33 0;
#X connect 4 0 5 0;
#X connect 5 0 3 1;
#X connect 6 0 7 0;
#X connect 7 0 3 1;
#X connect 8 0 9 0;
#X connect 9 0 0 0;
#X connect 9 1 2 0;
#X connect 10 0 11 0;
#X connect 11 0 4 0;
#X connect 11 1 6 0;
#X connect 14 0 20 0;
#X connect 15 0 22 0;
#X connect 16 0 17 0;
#X connect 17 0 18 0;
#X connect 18 0 19 1;
#X connect 19 0 21 0;
#X connect 20 0 8 0;
#X connect 20 0 10 0;
#X connect 21 0 3 0;
#X connect 21 0 26 0;
#X connect 22 0 19 0;
#X connect 24 0 26 0;
#X connect 25 0 24 0;
#X connect 29 0 21 0;
#X connect 30 0 33 1;
#X connect 31 0 32 0;
#X connect 32 0 30 0;
#X connect 33 0 1 1;
#X connect 33 0 1 0;
